<svg width="19" height="17" viewBox="0 0 19 17" fill="none" xmlns="http://www.w3.org/2000/svg">
<path d="M8.79238 16.4998C8.73743 16.4998 8.68308 16.4885 8.63275 16.4664C8.58241 16.4444 8.53718 16.4122 8.49989 16.3719L0.613638 7.84121C0.561066 7.78433 0.526214 7.71337 0.513348 7.637C0.500481 7.56063 0.510159 7.48216 0.541195 7.4112C0.572231 7.34025 0.623281 7.27988 0.688095 7.23748C0.752909 7.19509 0.828677 7.17251 0.906125 7.1725H4.70213C4.75912 7.17251 4.81545 7.18474 4.86732 7.20837C4.91918 7.23201 4.96538 7.26648 5.00278 7.30949L7.6384 10.3417C7.92324 9.7328 8.47463 8.71899 9.44224 7.48363C10.8727 5.65733 13.5334 2.97141 18.0856 0.546743C18.1736 0.499889 18.2759 0.487729 18.3724 0.512663C18.4689 0.537597 18.5526 0.597814 18.6069 0.681422C18.6612 0.76503 18.6821 0.865952 18.6656 0.96426C18.6491 1.06257 18.5964 1.15112 18.5178 1.21242C18.5004 1.226 16.7452 2.60818 14.7253 5.13987C12.8662 7.46965 10.3949 11.2792 9.17891 16.1973C9.15755 16.2837 9.10786 16.3604 9.03778 16.4153C8.9677 16.4702 8.88126 16.5 8.79226 16.5L8.79238 16.4998Z" fill="#CECECE"/>
</svg>
