<svg width="15" height="15" viewBox="0 0 15 15" fill="none" xmlns="http://www.w3.org/2000/svg">
<path fill-rule="evenodd" clip-rule="evenodd" d="M2.5 5C3.88071 5 5 3.88071 5 2.5C5 1.11929 3.88071 0 2.5 0C1.11929 0 0 1.11929 0 2.5C0 3.88071 1.11929 5 2.5 5ZM2.5 15C3.88071 15 5 13.8807 5 12.5C5 11.1193 3.88071 10 2.5 10C1.11929 10 0 11.1193 0 12.5C0 13.8807 1.11929 15 2.5 15ZM15 2.5C15 3.88071 13.8807 5 12.5 5C11.1193 5 10 3.88071 10 2.5C10 1.11929 11.1193 0 12.5 0C13.8807 0 15 1.11929 15 2.5ZM12.5 15C13.8807 15 15 13.8807 15 12.5C15 11.1193 13.8807 10 12.5 10C11.1193 10 10 11.1193 10 12.5C10 13.8807 11.1193 15 12.5 15Z" fill="white"/>
</svg>
