<svg width="33" height="32" viewBox="0 0 33 32" fill="none" xmlns="http://www.w3.org/2000/svg">
<g clip-path="url(#clip0_95_689)">
<path d="M30.5744 20.0551L22.1411 15.485L30.0501 10.0584C30.1862 9.96486 30.2797 9.82119 30.3098 9.65871C30.34 9.49622 30.3044 9.32845 30.2112 9.19238L27.6044 5.39334C27.4103 5.10977 27.022 5.0375 26.7384 5.23198L19.1885 10.4124L18.7093 1.26806C18.6913 0.924742 18.398 0.660706 18.0547 0.678699L13.4544 0.919792C13.111 0.937785 12.847 1.23103 12.865 1.57435L13.3442 10.7187L5.29387 6.35615C4.99092 6.19241 4.61324 6.30451 4.44948 6.60715L2.2541 10.6579C2.17564 10.8029 2.15776 10.9735 2.20473 11.1319C2.2517 11.2904 2.35971 11.4235 2.50479 11.5023L10.938 16.0721L3.02868 21.4987C2.89261 21.5919 2.79913 21.7359 2.76896 21.8981C2.73882 22.0609 2.77443 22.2287 2.86763 22.3647L5.47438 26.1635C5.66886 26.447 6.05622 26.5196 6.3404 26.3251L13.8906 21.1446L14.3699 30.289C14.3879 30.6323 14.6811 30.8964 15.0244 30.8784L19.6248 30.6373C19.9681 30.6193 20.2321 30.3261 20.2141 29.9827L19.7349 20.8387L27.7853 25.2009C28.0876 25.3647 28.4662 25.2523 28.6297 24.9502L30.825 20.8995C30.9035 20.7545 30.9214 20.5839 30.8744 20.4254C30.8277 20.2667 30.7194 20.1339 30.5744 20.0551Z" fill="#141414"/>
</g>
<defs>
<clipPath id="clip0_95_689">
<rect width="29.9997" height="30" fill="white" transform="translate(0.775391 1.58423) rotate(-3)"/>
</clipPath>
</defs>
</svg>
