<svg width="55" height="55" viewBox="0 0 55 55" fill="none" xmlns="http://www.w3.org/2000/svg">
<path fill-rule="evenodd" clip-rule="evenodd" d="M45.4985 55H8.6845V52.1618C8.6845 50.6008 10.2829 49.3237 12.2367 49.3237H18.5771V42.7058H4.16533C1.87435 42.7058 0 40.8313 0 38.5403V9.88453C0 7.59355 1.87435 5.71908 4.16533 5.71908H19.5588V9.2023H4.06083C3.74309 9.2023 3.4831 9.46229 3.4831 9.77992V35.6893H50.6998V9.78003C50.6998 9.46229 50.4398 9.20242 50.1222 9.20242H48.9288V6.69831L47.0716 5.98343C47.0406 5.89485 47.0082 5.80674 46.9746 5.7192H50.0177C52.3087 5.7192 54.1831 7.59355 54.1831 9.88465V38.5404C54.1831 40.8314 52.3087 42.7059 50.0177 42.7059H35.606V49.3238H41.9463C43.9001 49.3238 45.4985 50.6009 45.4985 52.1619V55ZM23.837 27.858L26.282 23.6231H21.3919L23.837 27.858ZM21.392 21.7899H26.2821V2.92199C26.2821 1.79976 25.3668 0.884469 24.2446 0.884469H23.4295C22.3073 0.884469 21.392 1.79976 21.392 2.92199V21.7899ZM42.5305 31.3161L46.3768 28.0747C46.8153 27.7059 46.8061 27.03 46.3672 26.6702L42.5305 23.437C42.1449 23.1127 41.5693 23.1623 41.245 23.548C40.9207 23.9336 40.9703 24.5091 41.356 24.8335L44.3738 27.3766L41.356 29.9197C40.9704 30.2439 40.9207 30.8195 41.245 31.2052C41.5693 31.5907 42.1449 31.6404 42.5305 31.3161ZM35.5486 29.9197L32.5308 27.3766L35.5486 24.8335C35.9341 24.5093 35.9839 23.9337 35.6596 23.548C35.3353 23.1624 34.7598 23.1127 34.3741 23.437L30.5374 26.6702C30.0984 27.03 30.0892 27.7059 30.5278 28.0747L34.3741 31.3161C34.7597 31.6404 35.3352 31.5907 35.6596 31.2051C35.9839 30.8195 35.9341 30.2439 35.5486 29.9197ZM38.1564 32.0178L40.517 23.2079C40.6475 22.7195 40.3574 22.2177 39.8689 22.0872C39.3805 21.9567 38.8787 22.2468 38.7482 22.7353L36.3875 31.5451C36.257 32.0336 36.5472 32.5354 37.0356 32.6659C37.5241 32.7964 38.0259 32.5063 38.1564 32.0178ZM45.5707 7.37C45.3773 6.55749 45.0552 5.7813 44.6173 5.07008L45.2809 3.5758L43.5197 1.81454L42.0253 2.47821C41.3141 2.04027 40.5381 1.71818 39.7256 1.52476L39.1385 0H36.6478L36.0608 1.52499C35.2482 1.71841 34.4723 2.0405 33.7611 2.47844L32.2667 1.81477L30.5054 3.57603L31.169 5.06997C30.7309 5.7813 30.4087 6.55749 30.2154 7.37034L28.6908 7.95713V10.4479L30.2157 11.0348C30.409 11.8473 30.7313 12.6234 31.1691 13.3345L30.5054 14.8289L32.2667 16.5902L33.7606 15.9266C34.4719 16.3647 35.2482 16.6869 36.061 16.8802L36.6478 18.4048H39.1386L39.7256 16.8798C40.5381 16.6864 41.3142 16.3643 42.0253 15.9265L43.5197 16.5902L45.2809 14.8289L44.6174 13.335C45.0554 12.6236 45.3775 11.8473 45.5711 11.0347L47.0956 10.4478V7.95701L45.5707 7.37ZM37.8932 13.5462C35.4939 13.5462 33.5493 11.6016 33.5493 9.2023C33.5493 6.80304 35.4939 4.85845 37.8932 4.85845C40.2924 4.85845 42.237 6.80304 42.237 9.2023C42.237 11.6017 40.2924 13.5462 37.8932 13.5462ZM7.4462 25.1083H17.3637C17.87 25.1083 18.2804 24.6979 18.2804 24.1916C18.2804 23.6854 17.87 23.275 17.3637 23.275H7.4462C6.93997 23.275 6.52953 23.6854 6.52953 24.1916C6.52953 24.6979 6.93997 25.1083 7.4462 25.1083ZM7.4462 21.4117H17.3637C17.87 21.4117 18.2804 21.0013 18.2804 20.4951C18.2804 19.9888 17.87 19.5784 17.3637 19.5784H7.4462C6.93997 19.5784 6.52953 19.9888 6.52953 20.4951C6.52953 21.0013 6.93997 21.4117 7.4462 21.4117ZM7.5114 14.0185H17.4289C17.9352 14.0185 18.3456 13.608 18.3456 13.1018C18.3456 12.5956 17.9352 12.1851 17.4289 12.1851H7.5114C7.00517 12.1851 6.59473 12.5956 6.59473 13.1018C6.59473 13.608 7.00517 14.0185 7.5114 14.0185ZM7.47874 17.7152H17.3964C17.9026 17.7152 18.3131 17.3047 18.3131 16.7985C18.3131 16.2923 17.9026 15.8818 17.3964 15.8818H7.47874C6.97251 15.8818 6.56207 16.2923 6.56207 16.7985C6.56207 17.3047 6.97251 17.7152 7.47874 17.7152ZM7.5114 32.5016H26.5959C27.1022 32.5016 27.5126 32.0911 27.5126 31.5849C27.5126 31.0787 27.1022 30.6682 26.5959 30.6682H7.5114C7.00517 30.6682 6.59473 31.0787 6.59473 31.5849C6.59473 32.0911 7.00517 32.5016 7.5114 32.5016ZM7.47874 28.8049H17.3964C17.9026 28.8049 18.3131 28.3944 18.3131 27.8882C18.3131 27.382 17.9026 26.9715 17.3964 26.9715H7.47874C6.97251 26.9715 6.56207 27.382 6.56207 27.8882C6.56207 28.3944 6.97251 28.8049 7.47874 28.8049Z" fill="#F1FF9D"/>
</svg>
