<svg width="56" height="55" viewBox="0 0 56 55" fill="none" xmlns="http://www.w3.org/2000/svg">
<path d="M28.1299 35.7529C28.1299 36.8073 27.5835 37.7466 26.6729 38.2738L18.1804 43.1814C17.7203 43.4402 17.2219 43.5744 16.7235 43.5744C16.225 43.5744 15.7266 43.4402 15.2665 43.1814C14.3559 42.6543 13.8096 41.7149 13.8096 40.6605V30.8453C13.8096 29.8005 14.3559 28.8515 15.2665 28.3243C16.1771 27.7972 17.2698 27.7972 18.1804 28.3243L26.6729 33.232C27.5835 33.7592 28.1299 34.6985 28.1299 35.7529Z" fill="#FFF033"/>
<path d="M46.6295 30.5385C50.1952 27.2124 52.2272 22.5636 52.2272 17.656C52.2272 7.91739 44.3194 0 34.5904 0C24.8614 0 16.9536 7.91739 16.9536 17.656C16.9536 18.2407 16.9919 18.8158 17.0495 19.3813C9.20875 21.1738 3.33301 28.1901 3.33301 36.5772C3.33301 41.4848 5.36508 46.1337 8.94036 49.4597L7.18627 53.6677C7.02332 54.0415 7.11917 54.4728 7.4259 54.7508C7.60802 54.9137 7.83806 55 8.06811 55C8.22147 55 8.37483 54.9617 8.51861 54.885L13.1483 52.3737C15.5925 53.591 18.2189 54.2044 20.9698 54.2044C30.6988 54.2044 38.6066 46.2966 38.6066 36.5772C38.6066 35.9829 38.5779 35.4078 38.5204 34.8327C39.8623 34.526 41.1755 34.0659 42.412 33.4524L47.0416 35.9638C47.1854 36.0404 47.3388 36.0788 47.4921 36.0788C47.7318 36.0788 47.9618 35.9925 48.1439 35.8296C48.4411 35.5516 48.5369 35.1203 48.3836 34.7464L46.6295 30.5385ZM20.9698 52.2874C18.3626 52.2874 15.8801 51.6643 13.5892 50.447C13.4454 50.3703 13.2921 50.332 13.1387 50.332C12.9853 50.332 12.8224 50.3703 12.6882 50.447L9.99474 51.904L10.9628 49.5748C11.0108 49.4597 11.0395 49.3256 11.0395 49.2009V49.1914C11.0395 49.0763 11.0204 48.9613 10.982 48.8655C10.9245 48.7121 10.8287 48.5683 10.704 48.4629C7.23419 45.4915 5.25005 41.1589 5.25005 36.5772C5.25005 27.9026 12.3048 20.8383 20.9698 20.8383C29.6349 20.8383 36.6896 27.9026 36.6896 36.5772C36.6896 45.2518 29.6444 52.2874 20.9698 52.2874ZM44.5974 30.6535L45.5655 32.9827L42.8816 31.5258C42.5941 31.3724 42.2586 31.3724 41.971 31.5258C40.7825 32.1584 39.5268 32.6281 38.2232 32.9252C37.5043 29.4841 35.7694 26.4169 33.3539 24.0302H42.5366C43.0638 24.0302 43.4951 23.5988 43.4951 23.0716C43.4951 22.5349 43.0638 22.1131 42.5366 22.1131H31.0535C28.1875 20.1098 24.7176 18.9212 20.9698 18.9212C20.2797 18.9212 19.6087 18.9787 18.9377 19.0554C18.8994 18.5953 18.8707 18.1257 18.8707 17.656C18.8707 8.98135 25.9254 1.91704 34.5904 1.91704C43.2555 1.91704 50.3102 8.98135 50.3102 17.656C50.3102 22.2377 48.326 26.5702 44.8562 29.5417C44.6453 29.7238 44.5207 30.0017 44.5207 30.2797C44.5207 30.4043 44.5495 30.5385 44.5974 30.6535Z" fill="#FFF033"/>
<path d="M42.5305 12.0428H26.9517C26.4226 12.0428 25.9932 12.4723 25.9932 13.0014C25.9932 13.5305 26.4226 13.9599 26.9517 13.9599H42.5305C43.0597 13.9599 43.4891 13.5305 43.4891 13.0014C43.4891 12.4723 43.0597 12.0428 42.5305 12.0428Z" fill="#FFF033"/>
<path d="M42.5305 17.078H26.9517C26.4226 17.078 25.9932 17.5074 25.9932 18.0365C25.9932 18.5656 26.4226 18.995 26.9517 18.995H42.5305C43.0597 18.995 43.4891 18.5656 43.4891 18.0365C43.4891 17.5074 43.0597 17.078 42.5305 17.078Z" fill="#FFF033"/>
<path d="M14.3754 7.78318C13.4361 6.84383 12.1996 6.33582 10.8768 6.33582C9.7937 6.33582 8.7585 6.68088 7.90541 7.31351C7.06191 6.68088 6.02671 6.33582 4.94358 6.33582C3.62082 6.33582 2.38432 6.84383 1.44497 7.78318C-0.481657 9.70981 -0.481657 12.8442 1.44497 14.7804L7.23445 20.5603C7.41657 20.752 7.66578 20.8383 7.90541 20.8383C8.15463 20.8383 8.40384 20.752 8.58596 20.5603L14.3659 14.7804C15.3052 13.8506 15.8132 12.6141 15.8132 11.2818C15.8132 9.95903 15.3052 8.71295 14.3754 7.78318ZM13.0143 13.4193L7.90541 18.5282L2.80607 13.4193C1.61751 12.2403 1.61751 10.3137 2.80607 9.1347C3.3716 8.56917 4.13842 8.25286 4.94358 8.25286C5.75832 8.25286 6.51555 8.56917 7.09067 9.1347L7.23445 9.27848C7.60827 9.6523 8.21214 9.6523 8.58596 9.27848L8.72974 9.1347C9.87038 7.99406 11.8737 7.99406 13.0143 9.1347C13.5894 9.70981 13.8962 10.467 13.8962 11.2818C13.8962 12.0965 13.5894 12.8538 13.0143 13.4193Z" fill="#FFF033"/>
<path d="M13.8966 11.2817C13.8966 12.0965 13.5898 12.8537 13.0147 13.4192L7.9058 18.5282L2.80646 13.4192C1.6179 12.2403 1.6179 10.3136 2.80646 9.13465C3.37199 8.56912 4.13881 8.25281 4.94397 8.25281C5.75871 8.25281 6.51595 8.56912 7.09106 9.13465L7.23484 9.27843C7.60866 9.65225 8.21253 9.65225 8.58635 9.27843L8.73013 9.13465C9.87077 7.99401 11.8741 7.99401 13.0147 9.13465C13.5898 9.70976 13.8966 10.467 13.8966 11.2817Z" fill="#FFF033"/>
<path d="M55.4005 42.8364C55.4005 44.1687 54.8829 45.4148 53.9531 46.335L48.1636 52.1149C47.9911 52.297 47.7419 52.3928 47.4927 52.3928C47.2339 52.3928 46.9942 52.297 46.8121 52.1149L41.0322 46.335C39.096 44.3988 39.096 41.2644 41.0322 39.3378C42.7863 37.5741 45.5565 37.4207 47.4927 38.8681C49.4289 37.4207 52.1894 37.5741 53.9531 39.3378C54.8829 40.2675 55.4005 41.5136 55.4005 42.8364Z" fill="#FFF033"/>
</svg>
