<svg width="56" height="56" viewBox="0 0 56 56" fill="none" xmlns="http://www.w3.org/2000/svg">
<path d="M5.24473 22.9488C5.85744 23.0223 6.41083 22.5851 6.48351 21.9762C6.55716 21.3663 6.12364 20.8106 5.51065 20.7368C4.90113 20.6646 4.3453 21.0997 4.27163 21.7102C4.1987 22.3196 4.63496 22.8753 5.24473 22.9488Z" fill="#FFF033"/>
<path d="M3.86851 25.0616C3.79471 25.6728 4.22977 26.2274 4.841 26.3009C5.45404 26.3744 6.0071 25.9353 6.08026 25.3283C6.15393 24.7186 5.71754 24.1626 5.10765 24.089C5.10753 24.089 5.10741 24.089 5.10729 24.0889C4.49572 24.0158 3.94133 24.4515 3.86851 25.0616Z" fill="#FFF033"/>
<path d="M7.65962 27.3341H1.74554C0.783032 27.3341 0 28.1171 0 29.0796V34.9937C0 35.9562 0.783032 36.7392 1.74554 36.7392H7.65962C8.62212 36.7392 9.40515 35.9562 9.40515 34.9937V29.0796C9.40515 28.1171 8.62212 27.3341 7.65962 27.3341ZM7.41025 34.7443H1.9949V29.329H7.41025V34.7443Z" fill="#FFF033"/>
<path d="M48.1976 9.84259H54.1117C55.0742 9.84259 55.8572 9.05956 55.8572 8.09705V2.18304C55.8572 1.22053 55.0742 0.4375 54.1117 0.4375H48.1976C47.2351 0.4375 46.452 1.22053 46.452 2.18304V4.14256H32.6312V2.18304C32.6312 1.22053 31.8481 0.4375 30.8856 0.4375H24.9716C24.0091 0.4375 23.226 1.22053 23.226 2.18304V4.14256H9.40515V2.18304C9.40515 1.22053 8.62212 0.4375 7.65962 0.4375H1.74554C0.783032 0.4375 0 1.22053 0 2.18304V8.09705C0 9.05956 0.783032 9.84259 1.74554 9.84259H7.65962C8.62212 9.84259 9.40515 9.05956 9.40515 8.09705V6.13746H17.0232C11.5866 8.5975 7.53204 12.8305 5.43386 18.4779C5.24197 18.9943 5.50509 19.5685 6.02147 19.7603C6.53787 19.9521 7.11202 19.6891 7.30384 19.1727C10.0476 11.7879 16.3203 7.49649 23.226 6.28502V8.09705C23.226 9.05956 24.0091 9.84259 24.9716 9.84259H30.8856C31.8481 9.84259 32.6312 9.05956 32.6312 8.09705V6.28588C34.2584 6.57236 37.5051 7.36323 40.7389 9.42891C47.0465 13.4581 49.7751 19.9445 50.1187 27.3341H48.1976C47.2351 27.3341 46.452 28.1171 46.452 29.0796V34.9936C46.452 35.9561 47.2351 36.7392 48.1976 36.7392H54.1117C55.0742 36.7392 55.8572 35.9561 55.8572 34.9936V29.0796C55.8572 28.1171 55.0742 27.3341 54.1117 27.3341H52.1145C51.6901 17.6766 47.4187 10.0253 38.8372 6.13746H46.452V8.09705C46.452 9.05956 47.2351 9.84259 48.1976 9.84259ZM7.41025 7.84769H1.9949V2.4324H7.41025V7.84769ZM53.8623 34.7443H48.4469V29.329H53.8623V34.7443ZM30.6363 7.84769H25.2209V2.4324H30.6363V7.84769ZM48.4469 2.4324H53.8623V7.84769H48.4469V2.4324Z" fill="#FFF033"/>
<path d="M19.7049 47.8931C19.6941 47.8931 19.6836 47.8924 19.6729 47.8923V54.4401C19.6729 54.991 20.1195 55.4375 20.6703 55.4375H35.1867C35.7375 55.4375 36.1841 54.991 36.1841 54.4401V47.8923C36.1734 47.8924 36.1628 47.8931 36.1521 47.8931H19.7049Z" fill="#FFF033"/>
<path d="M25.4561 30.5368C25.4561 31.9003 26.5654 33.0096 27.9289 33.0096C29.2923 33.0096 30.4017 31.9003 30.4017 30.5368C30.4017 29.1733 29.2923 28.064 27.9289 28.064C26.5654 28.064 25.4561 29.1733 25.4561 30.5368Z" fill="#FFF033"/>
<path d="M28.9259 13.9263V26.1826C30.9107 26.6372 32.3962 28.4161 32.3962 30.5368C32.3962 33.0002 30.392 35.0045 27.9285 35.0045C25.4649 35.0045 23.4608 33.0002 23.4608 30.5368C23.4608 28.4161 24.9463 26.6372 26.931 26.1826V13.9263L16.7937 30.3585C16.5356 30.7769 16.6219 31.3219 16.9956 31.6413C17.0388 31.6783 21.0322 35.1432 21.6974 39.7558H19.7049C18.5361 39.7558 17.5853 40.7066 17.5853 41.8754V43.7786C17.5853 44.9474 18.5361 45.8982 19.7049 45.8982H36.1521C37.3208 45.8982 38.2717 44.9474 38.2717 43.7786V41.8754C38.2717 40.7066 37.3208 39.7558 36.1521 39.7558H34.1595C34.8247 35.1432 38.818 31.6783 38.8604 31.6422C39.2356 31.3231 39.3218 30.7778 39.0632 30.3585L28.9259 13.9263Z" fill="#FFF033"/>
</svg>
