<svg width="55" height="55" viewBox="0 0 55 55" fill="none" xmlns="http://www.w3.org/2000/svg">
<path fill-rule="evenodd" clip-rule="evenodd" d="M6.65945 42.9083C6.95318 43.309 6.8665 43.8721 6.46571 44.1657C6.06503 44.4594 5.50193 44.3727 5.20832 43.9719C-2.60097 33.3301 -1.56078 18.4484 7.87356 8.99517C14.9358 1.9186 25.3593 -0.662111 34.8797 2.26213C36.828 2.86051 38.6818 3.67325 40.4134 4.67254L39.6817 2.86062C39.4969 2.39964 39.7208 1.8761 40.1819 1.69126C40.6429 1.50653 41.1664 1.73037 41.3513 2.19146L43.1517 6.64968C43.3364 7.11067 43.1126 7.6342 42.6515 7.81904C41.8558 8.13813 38.7402 8.40401 37.684 8.55481C37.1919 8.6248 36.7361 8.28262 36.6661 7.79053C36.596 7.29844 36.9383 6.84264 37.4304 6.77265L39.8485 6.42742C38.1366 5.40368 36.2938 4.57752 34.3516 3.98095C25.4646 1.25124 15.7419 3.65669 9.14875 10.2631C0.340403 19.0891 -0.631377 32.9729 6.65945 42.9083ZM35.8462 18.7364C35.7786 18.9887 36.0081 19.2181 36.2603 19.1505L40.2632 18.078L36.9188 14.7335L35.8462 18.7364ZM54.4212 1.13301L53.8638 0.575663C53.0963 -0.191888 51.8444 -0.191888 51.0769 0.575663L49.4501 2.2024L52.7946 5.54682L54.4213 3.92009C55.1886 3.15242 55.1886 1.90056 54.4212 1.13301ZM51.5193 6.8219L48.1748 3.47748L38.194 13.4585L41.5384 16.8029L51.5193 6.8219ZM10.1697 40.8246L11.6775 37.4299C10.6819 35.8136 9.95012 34.0493 9.51055 32.2026L6.04598 30.869V25.2089L9.511 23.8751C9.95034 22.0285 10.6824 20.2649 11.6777 18.6487L10.1696 15.2532L14.172 11.2508L17.5678 12.759C19.1839 11.7639 20.9474 11.0319 22.7937 10.5925L24.1276 7.12712H29.7876L31.1216 10.5925C32.9668 11.0316 34.7293 11.763 36.3446 12.7573L35.7076 13.3943C35.44 13.6619 35.2513 13.9889 35.1534 14.3543L34.1043 18.2697C33.9065 19.0079 34.1182 19.7978 34.6585 20.3382C35.1989 20.8787 35.9888 21.0903 36.7271 20.8925L40.6423 19.8434C41.0078 19.7455 41.3348 19.5567 41.6023 19.2891L42.24 18.6514C43.2344 20.2669 43.9658 22.0299 44.4049 23.8754L47.8695 25.209V30.869L44.404 32.2029C43.9647 34.0493 43.2326 35.8128 42.2376 37.4288L43.7458 40.8247L39.7435 44.8271L36.3487 43.3192C34.7323 44.3148 32.9682 45.0467 31.1213 45.4862L29.7878 48.9508H24.1276L22.7937 45.4853C20.9473 45.0459 19.1839 44.3139 17.5678 43.3189L14.172 44.8271L10.1697 40.8246ZM17.0867 28.039C17.0867 33.4911 21.5058 37.9101 26.9577 37.9101C32.4101 37.9101 36.8289 33.4911 36.8289 28.039C36.8289 22.5868 32.4099 18.1678 26.9577 18.1678C21.5056 18.1678 17.0867 22.5868 17.0867 28.039ZM47.4498 11.9122C47.0491 12.2059 46.9623 12.7689 47.256 13.1696C54.5475 23.1042 53.5745 36.9896 44.7669 45.8147C38.1962 52.3986 28.5112 54.813 19.6446 52.1227C17.6724 51.5244 15.8017 50.6893 14.0652 49.6507L16.4852 49.3052C16.9773 49.2352 17.3196 48.7794 17.2495 48.2873C17.1795 47.7953 16.7237 47.453 16.2316 47.5231C15.1754 47.6739 12.0599 47.9399 11.2641 48.2589C10.8031 48.4437 10.5791 48.9673 10.7639 49.4283L12.5644 53.8864C12.7493 54.3474 13.2728 54.5713 13.7338 54.3865C14.1948 54.2018 14.4187 53.6781 14.234 53.2171L13.5018 51.4042C15.2591 52.4185 17.1426 53.2406 19.1234 53.8416C28.6238 56.7241 39.0015 54.1374 46.042 47.0827C55.4756 37.6302 56.5172 22.7468 48.7072 12.1058C48.4134 11.7052 47.8505 11.6185 47.4498 11.9122Z" fill="#F1FF9D"/>
</svg>
