<svg width="63" height="55" viewBox="0 0 63 55" fill="none" xmlns="http://www.w3.org/2000/svg">
<path d="M10.3369 34.1117H28.9432C31.2277 34.1117 33.078 32.2613 33.078 29.9769V13.438C33.078 11.1535 31.2277 9.30322 28.9432 9.30322H10.3369C8.05249 9.30322 6.20215 11.1535 6.20215 13.438V29.9769C6.20215 32.2613 8.05249 34.1117 10.3369 34.1117ZM13.4379 16.2703C13.3913 14.7224 15.2357 13.6684 16.5494 14.4821L25.8629 19.9191C27.2219 20.6629 27.2242 22.752 25.8628 23.4957L16.5493 28.9329C15.8927 29.3032 15.133 29.3069 14.4716 28.9329C13.8307 28.5608 13.4379 27.8889 13.4379 27.1446V16.2703Z" fill="#F1FF9D"/>
<path d="M55.819 0H6.20211C2.78061 0 0 2.78061 0 6.20211V46.5158C0 49.9373 2.78061 52.718 6.20211 52.718H37.223L36.8406 50.6506H29.9769V44.4485H35.6725L35.29 42.3811H29.9769V40.3137H34.8972L34.5044 38.2464H2.06737V6.20211C2.06737 3.91765 3.91771 2.06737 6.20211 2.06737H55.819C58.1035 2.06737 59.9538 3.91765 59.9538 6.20211V35.383C61.2784 37.1477 61.3049 39.7421 59.9538 41.5024V46.5158C59.9538 47.3015 59.7367 48.0353 59.3439 48.6659C59.411 50.0276 58.8979 51.3382 57.9794 52.3252C60.3362 51.4568 62.0211 49.1827 62.0211 46.5158V6.20211C62.0211 2.78061 59.2405 0 55.819 0ZM16.539 48.5832H25.8421C26.413 48.5832 26.8758 48.1209 26.8758 47.5495C26.8758 46.9782 26.413 46.5158 25.8421 46.5158H16.539V44.4485H19.64C20.2109 44.4485 20.6737 43.9861 20.6737 43.4148C20.6737 42.8434 20.2109 42.3811 19.64 42.3811H16.539V40.3137H27.9095V42.3811C26.5512 42.4073 26.5521 44.4226 27.9095 44.4485V50.6506H16.539V48.5832ZM14.4716 40.3137V42.3811H7.2358C6.66495 42.3811 6.20211 42.8434 6.20211 43.4148C6.20211 43.9861 6.66495 44.4485 7.2358 44.4485H14.4716V46.5158H10.3369C9.766 46.5158 9.30317 46.9782 9.30317 47.5495C9.30317 48.1209 9.766 48.5832 10.3369 48.5832H14.4716V50.6506H6.20211C3.91771 50.6506 2.06737 48.8002 2.06737 46.5158V40.3137H14.4716Z" fill="#F1FF9D"/>
<path d="M54.1752 44.4485L57.9895 40.6445C59.7503 38.9984 58.7509 35.7597 56.3666 35.4037C56.3667 35.4037 39.7966 32.2923 39.7966 32.2923C37.7367 31.8496 35.7338 33.8482 36.1788 35.9103C36.1787 35.9102 39.2798 52.4802 39.2798 52.4802C39.657 54.8568 42.858 55.876 44.5207 54.103C44.5206 54.1031 48.3349 50.2991 48.3349 50.2991L50.5263 52.4905C51.6944 53.6586 53.7411 53.6586 54.9091 52.4905L56.377 51.0227C57.5864 49.8133 57.5864 47.8493 56.377 46.6399L54.1752 44.4485Z" fill="#F1FF9D"/>
<path d="M10.3372 6.20214C11.6948 6.17974 11.6968 4.15741 10.3372 4.13477H6.20249C4.84496 4.1571 4.84294 6.17943 6.20255 6.20214H10.3372Z" fill="#F1FF9D"/>
<path d="M18.6068 6.20214C19.9643 6.17974 19.9663 4.15741 18.6068 4.13477H14.472C13.1145 4.1571 13.1125 6.17943 14.4721 6.20214H18.6068Z" fill="#F1FF9D"/>
<path d="M26.8753 6.20214C28.2328 6.17974 28.2349 4.15741 26.8753 4.13477H22.7406C21.3831 4.1571 21.381 6.17943 22.7406 6.20214H26.8753Z" fill="#F1FF9D"/>
<path d="M51.6845 10.3369C51.1136 10.3369 50.6508 10.7993 50.6508 11.3706V12.4043H38.2466C37.6757 12.4043 37.2129 12.8666 37.2129 13.438C37.2129 14.0093 37.6757 14.4717 38.2466 14.4717H50.6508V15.5053C50.6508 16.0767 51.1136 16.539 51.6845 16.539C52.2553 16.539 52.7182 16.0767 52.7182 15.5053V14.4717H56.8529C57.4238 14.4717 57.8866 14.0093 57.8866 13.438C57.8866 12.8666 57.4238 12.4043 56.8529 12.4043H52.7182V11.3706C52.7182 10.7993 52.2553 10.3369 51.6845 10.3369Z" fill="#F1FF9D"/>
<path d="M43.4149 16.5391C42.8441 16.5391 42.3812 17.0014 42.3812 17.5727V18.6064H38.2465C36.888 18.629 36.8878 20.6513 38.2465 20.6738H42.3812V21.7075C42.3812 22.2788 42.8441 22.7412 43.4149 22.7412C43.9858 22.7412 44.4486 22.2788 44.4486 21.7075V20.6738H56.8528C58.2106 20.6515 58.2122 18.629 56.8528 18.6064H44.4486V17.5727C44.4486 17.0014 43.9858 16.5391 43.4149 16.5391Z" fill="#F1FF9D"/>
<path d="M48.5833 28.9431C49.1542 28.9431 49.617 28.4807 49.617 27.9094V26.8757H56.8528C57.4237 26.8757 57.8865 26.4134 57.8865 25.842C57.8865 25.2707 57.4237 24.8083 56.8528 24.8083H49.617V23.7747C49.617 23.2033 49.1542 22.741 48.5833 22.741C48.0125 22.741 47.5496 23.2033 47.5496 23.7747V24.8083H38.2465C36.8884 24.8307 36.8874 26.8532 38.2465 26.8757H47.5496V27.9094C47.5496 28.4807 48.0125 28.9431 48.5833 28.9431Z" fill="#F1FF9D"/>
<path d="M32.0447 46.5159C30.6874 46.5419 30.6864 48.5571 32.0448 48.5832H36.1794C36.2725 48.5832 36.3655 48.5729 36.4482 48.5419L36.0657 46.5159H32.0447Z" fill="#F1FF9D"/>
</svg>
