<svg width="52" height="55" viewBox="0 0 52 55" fill="none" xmlns="http://www.w3.org/2000/svg">
<path d="M11.8018 18.3784H26.4106C26.8852 18.3784 27.27 17.994 27.27 17.519C27.27 17.044 26.8852 16.6597 26.4106 16.6597H11.8018C11.3272 16.6597 10.9424 17.044 10.9424 17.519C10.9424 17.994 11.3272 18.3784 11.8018 18.3784Z" fill="#F1FF9D"/>
<path d="M11.8018 23.0674H26.4106C26.8852 23.0674 27.27 22.683 27.27 22.208C27.27 21.733 26.8852 21.3486 26.4106 21.3486H11.8018C11.3272 21.3486 10.9424 21.733 10.9424 22.208C10.9424 22.683 11.3272 23.0674 11.8018 23.0674Z" fill="#F1FF9D"/>
<path d="M32.7422 26.0374H11.8018C11.3272 26.0374 10.9424 26.4217 10.9424 26.8967C10.9424 27.3717 11.3272 27.7561 11.8018 27.7561H32.7422C33.2168 27.7561 33.6016 27.3717 33.6016 26.8967C33.6016 26.4217 33.2168 26.0374 32.7422 26.0374Z" fill="#F1FF9D"/>
<path d="M32.7422 30.7261H11.8018C11.3272 30.7261 10.9424 31.1104 10.9424 31.5854C10.9424 32.0604 11.3272 32.4448 11.8018 32.4448H32.7422C33.2168 32.4448 33.6016 32.0604 33.6016 31.5854C33.6016 31.1104 33.2168 30.7261 32.7422 30.7261Z" fill="#F1FF9D"/>
<path d="M51.6826 10.0119C51.6654 8.01813 50.3248 6.29939 48.4599 5.72363L48.4342 2.11426C48.417 0.885369 47.3943 -0.0169627 46.2772 0.000241913C45.2975 0.00884422 44.4811 0.68773 44.2405 1.59006C41.8084 3.98774 38.878 5.22518 35.2944 5.35411H29.8202C28.1616 5.37131 26.8898 6.78924 26.9069 8.37051L26.9327 10.5103H8.75699C7.26169 10.5103 6.04141 11.7306 6.04141 13.226V23.0743L0.36097 27.1392C0.180485 27.2509 0 27.5431 0 27.8353V54.1406C0 54.5875 0.412533 55 0.859371 55H43.6819C44.1545 55 44.5412 54.5789 44.5412 54.1406V27.8353C44.5412 27.5774 44.4038 27.2939 44.1803 27.1392L38.5084 23.0829V14.9533C40.7084 15.4689 42.6506 16.5087 44.3092 18.047C44.3436 19.233 45.3318 20.1181 46.4405 20.1181H46.4576C47.6521 20.1009 48.5889 19.1213 48.5717 17.9611L48.5459 14.3517C50.3935 13.7502 51.6998 11.997 51.6826 10.0119ZM33.7218 20.3501C33.7389 20.522 33.6186 20.6509 33.4639 20.6509H33.4553L31.7624 20.6681C31.7538 20.6681 31.7538 20.6681 31.7538 20.6681C31.6249 20.6681 31.5132 20.5736 31.496 20.4533L30.6022 14.5666L32.828 14.558L33.7218 20.3501ZM1.71873 52.4648V29.5024C1.81331 29.5712 16.7577 40.2704 17.7632 40.9923L1.71873 52.4648ZM7.76014 31.711V13.226C7.76014 12.676 8.20703 12.2291 8.75698 12.2291H27.0015C27.2077 13.2174 27.9124 14.0166 28.8319 14.3689L29.7944 20.7111C29.9405 21.6736 30.7827 22.3869 31.7538 22.3869H31.771L33.4725 22.3696C34.6498 22.3696 35.5952 21.3126 35.4147 20.0923L34.5639 14.5494H35.303C35.81 14.558 36.3084 14.5924 36.7897 14.6439V31.711C14.7863 47.4609 32.977 34.4401 22.2749 42.1008C21.3984 41.4821 8.37887 32.1579 7.76014 31.711ZM42.8139 29.5024V52.4648L26.7866 40.9923C42.1693 29.9665 42.8139 29.5024 42.8139 29.5024ZM36.1709 12.865V7.02129C39.2131 6.77209 41.8943 5.74083 44.1717 3.94472L44.2834 15.7697C41.9803 14.0337 39.2647 13.0541 36.1709 12.865ZM48.5287 12.4955L48.4772 7.5799C49.3623 8.06115 49.9552 8.98068 49.9638 10.0205C49.9725 11.0603 49.3967 12.0056 48.5287 12.4955Z" fill="#F1FF9D"/>
</svg>
