<svg xmlns="http://www.w3.org/2000/svg" width="157.354" height="49.958" viewBox="0 0 157.354 49.958"><g id="Group_18" data-name="Group 18" transform="translate(-243.195 -30)"><g id="Group_16" data-name="Group 16" transform="translate(243.195 30)"><g id="Group_8" data-name="Group 8" transform="translate(10.856 13.583)"><path id="Path_17" data-name="Path 17" d="M139.079-435.269l-14.122,14.122-14.124-14.122,1.717-1.715,12.407,12.407,12.407-12.407Z" transform="translate(-110.834 443.939)" fill="#fff"></path><path id="Path_18" data-name="Path 18" d="M139.079-463.91l-14.122,14.124L110.834-463.91l1.717-1.715,12.407,12.407,12.407-12.407Z" transform="translate(-110.834 465.626)" fill="#fff"></path><path id="Path_19" data-name="Path 19" d="M203.824-409.642l-7.481,7.481v-3.431l5.766-5.766Z" transform="translate(-175.579 424.535)" fill="#fff"></path><g id="Group_7" data-name="Group 7" transform="translate(0.001 13.178)"><path id="Path_20" data-name="Path 20" d="M110.837-409.642l7.481,7.481v-3.431l-5.766-5.766Z" transform="translate(-110.837 411.357)" fill="#fff"></path></g></g><path id="Path_21" data-name="Path 21" d="M91.106-519.378A22.819,22.819,0,0,1,113.9-496.584a22.819,22.819,0,0,1-22.793,22.793,22.819,22.819,0,0,1-22.793-22.793,22.819,22.819,0,0,1,22.793-22.794m0-2.185a24.979,24.979,0,0,0-24.979,24.979,24.979,24.979,0,0,0,24.979,24.979,24.979,24.979,0,0,0,24.979-24.979,24.979,24.979,0,0,0-24.979-24.979Z" transform="translate(-66.127 521.563)" fill="#ffa700"></path></g><g id="Group_17" data-name="Group 17" transform="translate(304.008 44.986)"><path id="Path_8" data-name="Path 8" d="M79.654-272.777H76.363l-.029-9.846-2.7,6.73h-1.7l-2.7-6.73v9.846H65.9v-18.81h3.115l3.762,9.316,3.762-9.316h3.115Z" transform="translate(-65.9 292.763)" fill="#fff"></path><path id="Path_9" data-name="Path 9" d="M101.606-290.575V-294.1h3.409v3.527Zm3.409,16.459h-3.409v-14.96h3.409Z" transform="translate(-84.913 294.102)" fill="#fff"></path><path id="Path_10" data-name="Path 10" d="M118.623-274.117h-3.439v-18.839l2.762-1.087.676-.059Z" transform="translate(-92.143 294.102)" fill="#fff"></path><path id="Path_11" data-name="Path 11" d="M128.826-290.575V-294.1h3.409v3.527Zm3.409,16.459h-3.409v-14.96h3.409Z" transform="translate(-99.408 294.102)" fill="#fff"></path><path id="Path_12" data-name="Path 12" d="M144.935-285.814v8.435h3.174v3.262h-4.232l-2.351-2.351v-9.346h-1.763v-.764l1.763-2.5v-3.7L144.2-294.1h.735v5.026h3.233v3.262Z" transform="translate(-105.231 294.102)" fill="#fff"></path><path id="Path_13" data-name="Path 13" d="M171.38-280.09h-6.143v11.7h-3.38l-.029-14.96h.763l2.646,1.7,1.7-1.7h2.733l1.7,1.7Z" transform="translate(-116.981 288.378)" fill="#fff"></path><path id="Path_14" data-name="Path 14" d="M197.1-268.392h-.763l-2.646-1.705-1.7,1.705h-4.232l-2.351-2.351V-274.8l2.645-2.645h5.643v-2.645H185.7V-281l2.351-2.351h6.7L197.1-281Zm-3.409-5.937h-4.878v2.821h4.878Z" transform="translate(-129.534 288.378)" fill="#fff"></path><path id="Path_15" data-name="Path 15" d="M228.11-274.083h-.764l-2.645-1.705-1.7,1.705h-3.938l-2.351-2.351v-10.258l2.351-2.351H223l1.7,1.7v-5.643l2.734-1.058h.676Zm-3.409-11.7h-4.585v8.435H224.7Z" transform="translate(-146.204 294.068)" fill="#fff"></path><path id="Path_16" data-name="Path 16" d="M256.73-268.392h-6.994l-2.352-2.351V-281l2.352-2.351h6.994L259.081-281v4.468l-2.352,2.351h-5.937v2.675h8.288v.764Zm-1.058-11.7h-4.879v2.792h4.879Z" transform="translate(-162.539 288.378)" fill="#fff"></path></g></g></svg>