<?xml version="1.0" encoding="UTF-8"?>
<svg id="Layer_1" xmlns="http://www.w3.org/2000/svg" version="1.1" viewBox="0 0 96 96">
  <!-- Generator: Adobe Illustrator 29.3.1, SVG Export Plug-In . SVG Version: 2.1.0 Build 151)  -->
  <defs>
    <style>
      .st0 {
        fill: #fff;
      }
    </style>
  </defs>
  <path class="st0" d="M75.1,22.6c17.4,2,18.7,27.3,1.2,30.8s-4.2.3-6.2.5-1-.3-.8.5c7.8,6.9,12.4,16.7,20.9,23h-5.9c-.6,0-4.1-3.3-4.7-4-3.1-3.4-13.7-19.5-17.5-19.5h-5.9v-1c6.6-1.1,13.3.9,19.6-1.7,11.3-4.8,10.6-22.8-1.6-26.5s-16.1-1.6-20.8-1-2.5,1.1-2.5,2.5v51.3h-4.4V22.6h28.8Z"/>
  <path class="st0" d="M44.3,47.7l-10.5,29.2c-.6,1-2.2.5-3.3.5L6.3,22.8c0-.3,4.7-.5,5,.4l21.7,48.6,1-.4,10.3-35v11.3Z"/>
</svg>